# xmcd
#
# Track frame offsets:
# 150
# 42053
# 64319
# 67534
# 103815
# 154992
# 158248
# 202243
# 256281
# 259409
# 323363
#
# Disc length: 4346 seconds
#
#
# Revision: 0
# Processed by: cddbd v1.5.2PL0 Copyright (c) Steve Scherf et al.
# Submitted via: FreeRIP 2.96 
#
DISCID=9710f80b
DTITLE=Jan Seghers - Ein allzu schönes Mädchen
DYEAR=2004
DGENRE=Hörbuch
TTITLE0=13 Ein allzu schoenes Maedchen
TTITLE1=14 Ein allzu schoenes Maedchen
TTITLE2=15 Ein allzu schoenes Maedchen
TTITLE3=16 Ein allzu schoenes Maedchen
TTITLE4=17 Ein allzu schoenes Maedchen
TTITLE5=18 Ein allzu schoenes Maedchen
TTITLE6=19 Ein allzu schoenes Maedchen
TTITLE7=20 Ein allzu schoenes Maedchen
TTITLE8=21 Ein allzu schoenes Maedchen
TTITLE9=22 Ein allzu schoenes Maedchen
TTITLE10=23 Ein allzu schoenes Maedchen
EXTD=gelesen von Miroslav Nemec
EXTT0=
EXTT1=
EXTT2=
EXTT3=
EXTT4=
EXTT5=
EXTT6=
EXTT7=
EXTT8=
EXTT9=
EXTT10=
PLAYORDER=
